<svg width="40" height="40" viewBox="0 0 40 40" fill="none" xmlns="http://www.w3.org/2000/svg">
  <rect width="40" height="40" rx="8" fill="#2563EB"/>
  <path d="M12 10C12 9.44772 12.4477 9 13 9H20C23.866 9 27 12.134 27 16C27 18.4 25.8 20.5 23.9 21.7L27.6 29.1C27.9 29.7 27.5 30.4 26.8 30.4H23.4C23 30.4 22.7 30.2 22.5 29.9L19.2 23H16V29C16 29.6 15.6 30 15 30H13C12.4 30 12 29.6 12 29V10Z" fill="white"/>
  <path d="M16 13V19H19.5C21.4 19 23 17.4 23 15.5V16.5C23 14.6 21.4 13 19.5 13H16Z" fill="#2563EB"/>
  <circle cx="31" cy="11" r="3" fill="#60A5FA"/>
</svg>
